# xmcd
#
# Track frame offsets:
#	150
#	7127
#	21748
#	38267
#	57740
#	83682
#	100534
#	130107
#	148497
#	190073
#	227289
#	244290
#	268281
#	290489
#	320180
#
# Disc length: 4552 seconds
#
# Revision: 1
# Processed by: cddbd v1.5PL3 Copyright (c) Steve Scherf et al.
# Submitted via: CDmax 2.0
#
DISCID=dd11c60f
DTITLE=The Original Acoustic Hot Tuna (Jorma and Jack) - Live at the Fox Theatr
DTITLE=e, Boulder, CO - 12.13.2000 - D1
DYEAR=2000
DGENRE=Blues
TTITLE0=Into
TTITLE1=Trouble In Mind
TTITLE2=How Long Blues
TTITLE3=That'll Never Happen No More
TTITLE4=Death Don't Have No Mercy
TTITLE5=Do Not Go Gentle
TTITLE6=I See The Light
TTITLE7=Living In The Moment
TTITLE8=Embryonic Journey
TTITLE9=99 Year Blues
TTITLE10=I Am The Light
TTITLE11=Uncle Same Blues
TTITLE12=San Francisco Bay Blues
TTITLE13=Hesitation Blues
TTITLE14=Walkin' Blues
EXTD=
EXTT0=
EXTT1=
EXTT2=
EXTT3=
EXTT4=
EXTT5=
EXTT6=
EXTT7=
EXTT8=
EXTT9=
EXTT10=
EXTT11=
EXTT12=
EXTT13=
EXTT14=
PLAYORDER=
